<svg className="svg-icon" style="width: 1em; height: 1em;vertical-align: middle;fill: currentColor;overflow: hidden;" viewBox="0 0 1024 1024" version="1.1" xmlns="http://www.w3.org/2000/svg"><path d="M510.907444 1024c-281.714365 0-510.907444-229.680407-510.907444-512C0 229.680407 229.193079 0 510.907444 0s510.907444 229.680407 510.907444 512c0 282.319593-229.193079 512-510.907444 512zM510.907444 62.880916C263.864045 62.880916 62.880916 264.351372 62.880916 512c0 247.640768 200.983128 449.119084 448.026528 449.119084s448.026528-201.470455 448.026528-449.119084S757.950844 62.880916 510.907444 62.880916z" fill="#4154F1" /><path d="M817.451911 548.258708a31.353997 31.353997 0 0 1-22.550669-9.526459C741.303121 483.585686 633.116505 391.056418 510.907444 391.056418S280.511767 483.585686 226.905786 538.74011a31.440458 31.440458 0 1 1-45.085617-43.827999C242.343051 432.636424 365.573927 328.175502 510.907444 328.175502s268.564393 104.460922 329.087275 166.728749A31.440458 31.440458 0 0 1 817.451911 548.258708z" fill="#fff" /><path d="M510.907444 695.816638c-86.681343 0-157.20229-70.104361-157.20229-156.274797s70.520948-156.274797 157.20229-156.274797 157.20229 70.104361 157.202291 156.274797-70.520948 156.274797-157.202291 156.274797z m0-249.660817c-52.010378 0-94.321374 41.89441-94.321374 93.39388s42.310996 93.393881 94.321374 93.393881 94.321374-41.89441 94.321374-93.393881-42.310996-93.393881-94.321374-93.39388z" fill="#fff" /></svg>